<svg version="1" xmlns="http://www.w3.org/2000/svg" width="1066.667" height="1066.667" viewBox="0 0 800.000000 800.000000"><path d="M0 400v400h800.1l-.4-186.7c-.2-102.8-.6-188.2-1-189.8-.6-3.2-1.9-13-1.9-15.5-.1-3.1-5.2-30.9-7.3-39.8-.3-1.2-.7-3-.9-4-10.2-44.3-34.1-96.3-62.8-136.5-36.9-51.7-87.3-95.3-143.3-123.7-14-7.1-26.7-13.1-29-13.6-.5-.2-4.1-1.6-8-3.2-15.8-6.6-50.4-16.7-67-19.7-1.6-.2-5.7-1-9-1.5-10-1.8-10.8-2-16-2.6-2.7-.3-6.1-.8-7.5-1-7.8-1.2-25.3-1.9-46.5-1.9-28.3 0-36.1.5-60.8 4.1-4 .5-19.4 3.3-21.2 3.8-.5.1-3.7.8-7 1.5-14.2 3-40.2 10.9-53 16.1-21.8 8.8-44 19.2-52.7 24.7-2.1 1.2-4 2.3-4.3 2.3-.3 0-.5-25.4-.5-56.5V0H0v400zm423.5-138.7c1.1.3 4 .8 6.5 1.2 11.7 1.8 12 1.8 23.7 5 10.6 2.9 27.8 9.4 33.1 12.6 1.8 1 3.7 1.9 4.2 1.9 2.5 0 25 14.7 35 22.9 5.5 4.5 23.3 22 28 27.6 20.6 24.4 36.6 58.8 42.6 91.2.2 1.3.6 3.5.9 5 1.3 6.8 1.9 17.9 1.9 31.3.1 18.3-.8 27.7-4 42-.8 3.6-1.7 7.6-2 9-2.4 11.7-15.1 41.2-23 53.7-16 25.1-37.5 47.1-61.9 63.2-19.8 13-52.6 26.1-72.4 28.7-2.5.3-4.8.7-5.1.9-.3.2-4.1.7-8.5 1.1-14.4 1.5-47 .8-52.6-1-.8-.3-3.2-.7-5.4-1.1-2.2-.3-6-1-8.5-1.5-2.5-.6-5.6-1.3-7-1.6-12.8-2.8-39.5-14.3-53.8-23.2-27.5-17.1-52.5-42.7-68-69.7-7.8-13.7-18.8-40.1-20.6-49.5-.2-1.4-.7-3.2-1-4-.8-2.1-3.5-18.2-4.4-25.5-1.3-12.1-.5-46.3 1.3-51.8.2-.7.6-3 .9-5.2.8-5.9 1.3-8 4.6-19.7 13.3-46.5 42.7-86 84.7-113.5 9.5-6.2 31-16.5 42.3-20.3 24.1-8 42.7-10.8 69-10.4 9.6.2 18.4.5 19.5.7z"/></svg>